<mxfile host="app.diagrams.net" modified="2023-06-01T01:17:14.206Z" agent="Mozilla/5.0 (Windows NT 10.0; Win64; x64) AppleWebKit/537.36 (KHTML, like Gecko) Chrome/113.0.0.0 Safari/537.36 Edg/113.0.1774.57" etag="vN2QYwXwBntQK6BYq9Od" version="21.3.6" type="github">
  <diagram id="C5RBs43oDa-KdzZeNtuy" name="Page-1">
    <mxGraphModel dx="1259" dy="742" grid="1" gridSize="10" guides="1" tooltips="1" connect="1" arrows="1" fold="1" page="1" pageScale="1" pageWidth="827" pageHeight="1169" math="0" shadow="0">
      <root>
        <mxCell id="WIyWlLk6GJQsqaUBKTNV-0" />
        <mxCell id="WIyWlLk6GJQsqaUBKTNV-1" parent="WIyWlLk6GJQsqaUBKTNV-0" />
        <mxCell id="rzdoh57jN-hRhDhTZi82-3" value="" style="edgeStyle=orthogonalEdgeStyle;rounded=0;orthogonalLoop=1;jettySize=auto;html=1;" edge="1" parent="WIyWlLk6GJQsqaUBKTNV-1" source="rzdoh57jN-hRhDhTZi82-0" target="rzdoh57jN-hRhDhTZi82-2">
          <mxGeometry relative="1" as="geometry" />
        </mxCell>
        <mxCell id="rzdoh57jN-hRhDhTZi82-0" value="开始" style="strokeWidth=2;html=1;shape=mxgraph.flowchart.start_1;whiteSpace=wrap;" vertex="1" parent="WIyWlLk6GJQsqaUBKTNV-1">
          <mxGeometry x="350" y="90" width="100" height="60" as="geometry" />
        </mxCell>
        <mxCell id="rzdoh57jN-hRhDhTZi82-6" style="edgeStyle=orthogonalEdgeStyle;rounded=0;orthogonalLoop=1;jettySize=auto;html=1;exitX=0;exitY=0;exitDx=0;exitDy=40;exitPerimeter=0;entryX=0.5;entryY=0;entryDx=0;entryDy=0;" edge="1" parent="WIyWlLk6GJQsqaUBKTNV-1" source="rzdoh57jN-hRhDhTZi82-1" target="rzdoh57jN-hRhDhTZi82-2">
          <mxGeometry relative="1" as="geometry" />
        </mxCell>
        <UserObject label="messages.csv" link="messages.csv" id="rzdoh57jN-hRhDhTZi82-1">
          <mxCell style="verticalLabelPosition=bottom;verticalAlign=top;html=1;shape=card;whiteSpace=wrap;size=20;arcSize=12;" vertex="1" parent="WIyWlLk6GJQsqaUBKTNV-1">
            <mxGeometry x="540" y="150" width="100" height="60" as="geometry" />
          </mxCell>
        </UserObject>
        <mxCell id="rzdoh57jN-hRhDhTZi82-2" value="读取并划分数据" style="whiteSpace=wrap;html=1;strokeWidth=2;" vertex="1" parent="WIyWlLk6GJQsqaUBKTNV-1">
          <mxGeometry x="340" y="230" width="120" height="60" as="geometry" />
        </mxCell>
        <mxCell id="rzdoh57jN-hRhDhTZi82-10" value="" style="edgeStyle=orthogonalEdgeStyle;rounded=0;orthogonalLoop=1;jettySize=auto;html=1;" edge="1" parent="WIyWlLk6GJQsqaUBKTNV-1" source="rzdoh57jN-hRhDhTZi82-4" target="rzdoh57jN-hRhDhTZi82-9">
          <mxGeometry relative="1" as="geometry" />
        </mxCell>
        <mxCell id="rzdoh57jN-hRhDhTZi82-4" value="&lt;div style=&quot;color: rgb(41, 41, 41); background-color: rgb(255, 255, 255); font-family: Consolas, &amp;quot;Courier New&amp;quot;, monospace; line-height: 27px;&quot;&gt;&lt;font style=&quot;font-size: 14px;&quot;&gt;tokenize()&lt;/font&gt;&lt;/div&gt;" style="whiteSpace=wrap;html=1;strokeWidth=2;" vertex="1" parent="WIyWlLk6GJQsqaUBKTNV-1">
          <mxGeometry x="340" y="450" width="120" height="50" as="geometry" />
        </mxCell>
        <mxCell id="rzdoh57jN-hRhDhTZi82-8" value="拆分单词构建词汇表" style="text;html=1;align=center;verticalAlign=middle;resizable=0;points=[];autosize=1;strokeColor=none;fillColor=none;" vertex="1" parent="WIyWlLk6GJQsqaUBKTNV-1">
          <mxGeometry x="400" y="310" width="130" height="30" as="geometry" />
        </mxCell>
        <mxCell id="rzdoh57jN-hRhDhTZi82-13" value="" style="edgeStyle=orthogonalEdgeStyle;rounded=0;orthogonalLoop=1;jettySize=auto;html=1;" edge="1" parent="WIyWlLk6GJQsqaUBKTNV-1" source="rzdoh57jN-hRhDhTZi82-9" target="rzdoh57jN-hRhDhTZi82-12">
          <mxGeometry relative="1" as="geometry" />
        </mxCell>
        <mxCell id="rzdoh57jN-hRhDhTZi82-9" value="&lt;div style=&quot;color: rgb(41, 41, 41); background-color: rgb(255, 255, 255); font-family: Consolas, &amp;quot;Courier New&amp;quot;, monospace; line-height: 27px;&quot;&gt;&lt;font style=&quot;font-size: 14px;&quot;&gt;generateMat()&lt;/font&gt;&lt;/div&gt;" style="whiteSpace=wrap;html=1;strokeWidth=2;" vertex="1" parent="WIyWlLk6GJQsqaUBKTNV-1">
          <mxGeometry x="340" y="560" width="120" height="60" as="geometry" />
        </mxCell>
        <mxCell id="rzdoh57jN-hRhDhTZi82-11" value="生成训练矩阵以及训练矩阵" style="text;html=1;align=center;verticalAlign=middle;resizable=0;points=[];autosize=1;strokeColor=none;fillColor=none;" vertex="1" parent="WIyWlLk6GJQsqaUBKTNV-1">
          <mxGeometry x="400" y="518" width="170" height="30" as="geometry" />
        </mxCell>
        <mxCell id="rzdoh57jN-hRhDhTZi82-12" value="&lt;div style=&quot;color: rgb(41, 41, 41); background-color: rgb(255, 255, 255); font-family: Consolas, &amp;quot;Courier New&amp;quot;, monospace; line-height: 27px;&quot;&gt;&lt;font style=&quot;font-size: 14px;&quot;&gt;MultinomialNB().fit(..)&lt;/font&gt;&lt;/div&gt;" style="whiteSpace=wrap;html=1;strokeWidth=2;" vertex="1" parent="WIyWlLk6GJQsqaUBKTNV-1">
          <mxGeometry x="290" y="690" width="220" height="60" as="geometry" />
        </mxCell>
        <mxCell id="rzdoh57jN-hRhDhTZi82-14" value="创建并训练模型" style="text;html=1;align=center;verticalAlign=middle;resizable=0;points=[];autosize=1;strokeColor=none;fillColor=none;" vertex="1" parent="WIyWlLk6GJQsqaUBKTNV-1">
          <mxGeometry x="400" y="650" width="110" height="30" as="geometry" />
        </mxCell>
      </root>
    </mxGraphModel>
  </diagram>
</mxfile>
